<?xml version="1.0" encoding="UTF-8" standalone="no"?>
<!-- Created with Inkscape (http://www.inkscape.org/) -->

<svg
   version="1.1"
   id="svg2"
   width="564.96552"
   height="564.96552"
   viewBox="0 0 564.96552 564.96552"
   xmlns="http://www.w3.org/2000/svg">
  <defs
     id="defs6" />
  <g
     id="g8">
    <image
       width="564.96552"
       height="564.96552"
       preserveAspectRatio="none"
       id="image10" />
    <g
       id="g312">
      <path
         style="fill:#d7e7f7;stroke-width:1.10345"
         d="M 1.5666846,521.54717 C 6.5183179,541.96093 22.92847,558.31179 43.586207,563.4149 87.264413,556.92509 -3.2025511,502.35853 1.5666846,521.54717 Z M 521.54717,563.39883 c 20.41376,-4.95163 36.76462,-21.36178 41.86773,-42.01952 3.34225,-20.61066 -61.05642,46.78872 -41.86778,42.01947 z M 68.413793,397.44631 C 52.128744,393.18966 37.098066,379.8713 30.936008,364.23804 c -13.293471,-33.72582 8.205953,-70.83201 44.266247,-76.39983 25.629415,-3.95725 51.056305,11.24979 60.528495,36.20022 1.50646,3.96813 2.66345,10.04828 3.01107,15.82364 1.00098,16.63 -4.24645,30.85415 -15.70734,42.57777 -14.2118,14.5376 -34.787459,20.19055 -54.620687,15.00647 z M 74.773392,267.0268 c -28.190606,-4.90067 -47.193691,-26.75973 -47.477628,-54.61301 -0.124791,-12.24171 2.336743,-21.42626 8.155023,-30.42828 10.95055,-16.94262 28.123815,-26.41941 47.81553,-26.3862 15.315846,0.0258 28.285113,5.45511 39.314283,16.45807 25.38539,25.32501 20.94186,66.837 -9.27731,86.66966 -10.49704,6.88915 -26.640508,10.36663 -38.529898,8.29976 z m 131.325078,-0.0462 c -26.90305,-4.10158 -47.23529,-28.06922 -47.18882,-55.62622 0.0258,-15.32606 5.45834,-28.29727 16.45807,-39.29699 30.10959,-30.1096 81.34778,-17.05533 93.43379,23.80469 4.11937,13.92662 1.8442,31.48526 -5.76133,44.46312 -11.21772,19.14159 -34.55862,30.06788 -56.94171,26.6554 z M 68.537739,133.98008 C 41.418376,126.68678 23.682332,99.841638 27.560658,71.9575 31.939933,40.47168 62.605942,18.416913 93.319633,24.664131 c 31.512407,6.40968 51.021547,35.848954 44.495447,67.143626 -4.28263,20.536563 -22.16041,38.414343 -42.696979,42.696983 -7.891338,1.64563 -19.351504,1.41943 -26.580362,-0.52466 z m 132.516951,0.0264 c -20.40154,-5.49136 -36.83162,-22.42557 -40.94246,-42.198737 -7.94476,-38.214289 23.99543,-72.99579 62.15434,-67.683406 42.01962,5.84986 63.00043,55.031524 37.80506,88.619773 -14.02395,18.69548 -37.34211,27.09644 -59.01694,21.26237 z m 131.20719,-0.0264 c -28.27373,-7.60376 -46.56068,-36.95402 -40.58837,-65.143678 4.98766,-23.542007 23.69157,-41.139965 47.48697,-44.67909 18.77631,-2.792628 38.31819,4.858238 50.86327,19.913544 18.34701,22.018169 16.69239,54.57831 -3.81685,75.109094 -14.23553,14.25048 -34.90384,19.92095 -53.94502,14.80013 z M 43.586207,1.5506169 C 22.92847,6.6537233 6.5183179,23.004596 1.5666846,43.418347 -5.1215672,62.538283 64.216624,-3.2960049 43.586207,1.5506169 Z M 563.43883,44.141029 C 561.84575,34.17847 553.52253,20.620374 544.25834,12.897025 538.47127,8.0724742 529.10575,3.4001183 521.54717,1.5666846 c 26.08756,6.4864978 40.26907,28.7248504 43.00766,46.9850394 -0.22589,0 -0.72808,-1.984813 -1.116,-4.410695 z"
         id="path328" />
      <path
         style="fill:#b3c9f7;stroke-width:1.10345"
         d="m 49.379311,564.23473 c 0.75862,-0.30611 2,-0.30611 2.75862,0 0.758621,0.30611 0.137931,0.55657 -1.37931,0.55657 -1.517241,0 -2.137931,-0.25046 -1.37931,-0.55657 z m 463.448279,0 c 0.75862,-0.30611 2,-0.30611 2.75862,0 0.75862,0.30611 0.13793,0.55657 -1.37931,0.55657 -1.51724,0 -2.13793,-0.25046 -1.37931,-0.55657 z M 89.172414,531.1083 c 0.796552,-0.31876 1.748276,-0.27956 2.114943,0.0871 0.366666,0.36666 -0.285058,0.62746 -1.448276,0.57955 -1.285454,-0.053 -1.546924,-0.31442 -0.666667,-0.66666 z m 263.724136,0 c 0.79655,-0.31876 1.74828,-0.27956 2.11495,0.0871 0.36666,0.36666 -0.28507,0.62746 -1.44828,0.57955 -1.28546,-0.053 -1.54692,-0.31442 -0.66667,-0.66666 z M 306.10206,515.03449 304,512.55173 l 2.48276,2.10205 c 1.36552,1.15613 2.48276,2.27337 2.48276,2.48276 0,0.88304 -0.88805,0.23112 -2.86346,-2.10205 z M 0.17422868,514.2069 c 0,-1.51724 0.25045372,-2.13793 0.55656382,-1.37931 0.3061101,0.75862 0.3061101,2 0,2.75862 -0.3061101,0.75862 -0.55656382,0.13793 -0.55656382,-1.37931 z m 563.86207132,0 c 0,-1.51724 0.25046,-2.13793 0.55656,-1.37931 0.30611,0.75862 0.30611,2 0,2.75862 -0.3061,0.75862 -0.55656,0.13793 -0.55656,-1.37931 z m -175.62251,-1.52007 c 0,-0.22913 0.86897,-1.09809 1.93104,-1.93103 1.75013,-1.37255 1.78916,-1.33352 0.41662,0.41662 -1.44151,1.83807 -2.34766,2.42259 -2.34766,1.51441 z M 139.36514,475.58621 c 0,-3.33793 0.20687,-4.70345 0.45969,-3.03448 0.25283,1.66896 0.25283,4.4 0,6.06896 -0.25282,1.66897 -0.45969,0.30345 -0.45969,-3.03448 z m 263.67175,-0.55172 c 0.0122,-2.42759 0.23822,-3.29076 0.50216,-1.91817 0.26393,1.37259 0.25391,3.35879 -0.0223,4.41379 -0.27618,1.055 -0.49214,-0.0681 -0.47989,-2.49562 z m 18.75862,0 c 0.0122,-2.42759 0.23822,-3.29076 0.50216,-1.91817 0.26393,1.37259 0.25391,3.35879 -0.0223,4.41379 -0.27618,1.055 -0.49214,-0.0681 -0.47989,-2.49562 z m -263.82818,0.55172 c 0,-1.51724 0.25046,-2.13793 0.55657,-1.37931 0.3061,0.75862 0.3061,2 0,2.75862 -0.30611,0.75862 -0.55657,0.13793 -0.55657,-1.37931 z M 26.569873,467.2184 c 0.05294,-1.28547 0.314417,-1.54693 0.666667,-0.66667 0.318754,0.79654 0.279552,1.74828 -0.08712,2.11494 -0.366667,0.36667 -0.627465,-0.28506 -0.579553,-1.44827 z m 359.577627,-32.18392 -3.80267,-4.13793 4.13793,3.80267 c 2.27586,2.09147 4.13793,3.95354 4.13793,4.13794 0,0.84261 -0.93376,0.0488 -4.47319,-3.80268 z M 79.172414,418.51211 c 1.972414,-0.24476 5.2,-0.24476 7.172414,0 1.972414,0.24478 0.358621,0.44506 -3.586207,0.44506 -3.944828,0 -5.558621,-0.20028 -3.586207,-0.44506 z m 132.482756,0.0445 c 0.79655,-0.31875 1.74827,-0.27956 2.11495,0.0871 0.36666,0.36667 -0.28507,0.62747 -1.44828,0.57956 -1.28546,-0.053 -1.54692,-0.31442 -0.66667,-0.66666 z m 5.51724,0 c 0.79655,-0.31875 1.74828,-0.27956 2.11495,0.0871 0.36667,0.36667 -0.28506,0.62747 -1.44827,0.57956 -1.28547,-0.053 -1.54693,-0.31442 -0.66668,-0.66666 z m 125.72414,-0.0445 c 1.97242,-0.24476 5.2,-0.24476 7.17242,0 1.97241,0.24478 0.35862,0.44506 -3.58621,0.44506 -3.94483,0 -5.55862,-0.20028 -3.58621,-0.44506 z m 132.48276,0.0445 c 0.79655,-0.31875 1.74828,-0.27956 2.11495,0.0871 0.36666,0.36667 -0.28507,0.62747 -1.44828,0.57956 -1.28546,-0.053 -1.54692,-0.31442 -0.66667,-0.66666 z m 5.51724,0 c 0.79655,-0.31875 1.74829,-0.27956 2.11495,0.0871 0.36667,0.36667 -0.28506,0.62747 -1.44828,0.57956 -1.28546,-0.053 -1.54692,-0.31442 -0.66667,-0.66666 z M 81.952036,399.78705 c 1.073618,-0.27977 2.563274,-0.26138 3.310345,0.0409 0.747069,0.30226 -0.131346,0.53116 -1.952036,0.50867 -1.820689,-0.0225 -2.431929,-0.26979 -1.358309,-0.54956 z m 131.289344,0.004 c 1.06207,-0.27754 2.8,-0.27754 3.86207,0 1.06207,0.27755 0.1931,0.50464 -1.93104,0.50464 -2.12413,0 -2.9931,-0.22709 -1.93103,-0.50464 z M 72.62069,398.6945 c 0.796552,-0.31875 1.748276,-0.27956 2.114943,0.0871 0.366666,0.36667 -0.285058,0.62747 -1.448276,0.57956 -1.285454,-0.053 -1.546924,-0.31442 -0.666667,-0.66666 z m 19.862069,0 c 0.796552,-0.31875 1.748276,-0.27956 2.114943,0.0871 0.366666,0.36667 -0.285058,0.62747 -1.448276,0.57956 -1.285454,-0.053 -1.546924,-0.31442 -0.666667,-0.66666 z m 15.655171,-5.19713 c 0,-0.23852 0.77062,-0.72938 1.71248,-1.09081 0.98199,-0.37682 1.42491,-0.19184 1.03833,0.43366 -0.64801,1.04851 -2.75081,1.55084 -2.75081,0.65715 z M 43.034483,383.44828 c -2.680308,-2.73104 -4.625011,-4.96552 -4.321563,-4.96552 0.303449,0 2.744703,2.23448 5.425011,4.96552 2.680308,2.73103 4.625011,4.96551 4.321563,4.96551 -0.303449,0 -2.744703,-2.23448 -5.425011,-4.96551 z m 78.344827,1.23855 c 0,-0.22913 0.86897,-1.09809 1.93104,-1.93103 1.75013,-1.37255 1.78916,-1.33352 0.41661,0.41662 -1.44151,1.83806 -2.34765,2.42259 -2.34765,1.51441 z m 16.63884,-31.12361 c 0.053,-1.28546 0.31442,-1.54692 0.66666,-0.66667 0.31875,0.79655 0.27956,1.74828 -0.0871,2.11495 -0.36668,0.36666 -0.62747,-0.28507 -0.57955,-1.44828 z M 26.656988,349.79311 c 0,-1.51725 0.250453,-2.13794 0.556564,-1.37932 0.306109,0.75863 0.306109,2 0,2.75863 -0.306111,0.75862 -0.556564,0.13793 -0.556564,-1.37931 z m 112.693092,-6.06897 c 0.009,-3.03448 0.22259,-4.14489 0.47622,-2.46759 0.25363,1.67731 0.24685,4.16007 -0.015,5.51724 -0.26192,1.35718 -0.46943,-0.0152 -0.46115,-3.04965 z m 18.77368,-0.55172 c 0,-3.33794 0.20687,-4.70345 0.45969,-3.03449 0.25283,1.66897 0.25283,4.4 0,6.06897 -0.25282,1.66896 -0.45969,0.30345 -0.45969,-3.03448 z m 263.64948,0 c 0,-2.12414 0.22709,-2.99311 0.50464,-1.93104 0.27754,1.06207 0.27754,2.8 0,3.86207 -0.27755,1.06207 -0.50464,0.1931 -0.50464,-1.93103 z M 26.656988,336.55173 c 0,-1.51725 0.250453,-2.13794 0.556564,-1.37931 0.306109,0.75862 0.306109,2 0,2.75862 -0.306111,0.75862 -0.556564,0.13793 -0.556564,-1.37931 z m 111.361162,-3.95402 c 0.053,-1.28547 0.31442,-1.54693 0.66666,-0.66667 0.31875,0.79654 0.27956,1.74828 -0.0871,2.11494 -0.36668,0.36667 -0.62747,-0.28506 -0.57955,-1.44827 z M 39.724138,306.41334 c 0,-0.1899 1.613793,-1.80369 3.586207,-3.5862 l 3.586207,-3.24093 -3.240928,3.58621 c -3.021,3.34285 -3.931486,4.0934 -3.931486,3.24092 z M 306.2069,303.44828 c 1.09847,-1.2138 2.24549,-2.2069 2.54894,-2.2069 0.30345,0 -0.34702,0.9931 -1.44549,2.2069 -1.09848,1.21379 -2.2455,2.20689 -2.54895,2.20689 -0.30345,0 0.34703,-0.9931 1.4455,-2.20689 z m -188.27869,-4.13793 c -1.37255,-1.75014 -1.33352,-1.78917 0.41662,-0.41662 1.06207,0.83294 1.93103,1.7019 1.93103,1.93103 0,0.90818 -0.90614,0.32366 -2.34765,-1.51441 z M 74.827587,287.24622 c 0.796551,-0.31875 1.748275,-0.27955 2.114942,0.0871 0.366666,0.36666 -0.285058,0.62746 -1.448275,0.57955 -1.285455,-0.053 -1.546925,-0.31442 -0.666667,-0.66666 z m 15.448276,0 c 0.796551,-0.31875 1.748275,-0.27955 2.114942,0.0871 0.366666,0.36666 -0.285058,0.62746 -1.448275,0.57955 -1.285455,-0.053 -1.546925,-0.31442 -0.666667,-0.66666 z m 132.413797,0 c 0.79654,-0.31875 1.74827,-0.27955 2.11494,0.0871 0.36667,0.36666 -0.28506,0.62746 -1.44827,0.57955 -1.28547,-0.053 -1.54693,-0.31442 -0.66667,-0.66666 z M 75.331346,267.37325 c 1.073619,-0.27976 2.563274,-0.26137 3.310345,0.0409 0.74707,0.30227 -0.131346,0.53117 -1.952035,0.50868 -1.82069,-0.0225 -2.43193,-0.26979 -1.35831,-0.54956 z m 12.137931,0 c 1.073619,-0.27976 2.563274,-0.26137 3.310345,0.0409 0.74707,0.30227 -0.131346,0.53117 -1.952035,0.50868 -1.82069,-0.0225 -2.43193,-0.26979 -1.35831,-0.54956 z m 120.275863,0 c 1.07362,-0.27976 2.56327,-0.26137 3.31034,0.0409 0.74707,0.30227 -0.13134,0.53117 -1.95203,0.50868 -1.82069,-0.0225 -2.43193,-0.26979 -1.35831,-0.54956 z m 12.13793,0 c 1.07362,-0.27976 2.56328,-0.26137 3.31034,0.0409 0.74707,0.30227 -0.13134,0.53117 -1.95203,0.50868 -1.82069,-0.0225 -2.43193,-0.26979 -1.35831,-0.54956 z m 118.66866,0.011 c 0.79654,-0.31875 1.74828,-0.27956 2.11494,0.0871 0.36667,0.36667 -0.28506,0.62747 -1.44827,0.57955 -1.28547,-0.053 -1.54693,-0.31441 -0.66667,-0.66666 z M 118.06897,255.58338 c 0,-0.22913 0.86896,-1.09809 1.93103,-1.93103 1.75014,-1.37255 1.78916,-1.33352 0.41662,0.41662 -1.44151,1.83807 -2.34765,2.4226 -2.34765,1.51441 z m 58.92964,-2.06614 -2.10206,-2.48276 2.48276,2.10206 c 2.33318,1.97542 2.98509,2.86346 2.10206,2.86346 -0.20939,0 -1.32663,-1.11724 -2.48276,-2.48276 z m -51.75723,-5.24138 c 1.09847,-1.21379 2.2455,-2.20689 2.54894,-2.20689 0.30345,0 -0.34702,0.9931 -1.44549,2.20689 -1.09847,1.2138 -2.2455,2.2069 -2.54895,2.2069 -0.30344,0 0.34703,-0.9931 1.4455,-2.2069 z M 171.48137,248 l -2.10206,-2.48276 2.48276,2.10206 c 2.33317,1.97542 2.98509,2.86346 2.10206,2.86346 -0.20939,0 -1.32663,-1.11724 -2.48276,-2.48276 z m -33.46322,-25.74712 c 0.053,-1.28546 0.31442,-1.54693 0.66666,-0.66667 0.31875,0.79654 0.27956,1.74827 -0.0871,2.11494 -0.36668,0.36667 -0.62747,-0.28506 -0.57955,-1.44827 z m 20.96552,0 c 0.053,-1.28546 0.31442,-1.54693 0.66666,-0.66667 0.31875,0.79654 0.27956,1.74827 -0.0871,2.11494 -0.36668,0.36667 -0.62747,-0.28506 -0.57956,-1.44827 z M 26.697875,217.93104 c 0.02249,-1.82069 0.269791,-2.43194 0.549563,-1.35832 0.279772,1.07363 0.261373,2.56328 -0.04088,3.31035 -0.302265,0.74707 -0.531169,-0.13134 -0.508681,-1.95203 z m 243.862075,0 c 0.0225,-1.82069 0.26979,-2.43194 0.54956,-1.35832 0.27977,1.07363 0.26137,2.56328 -0.0409,3.31035 -0.30227,0.74707 -0.53117,-0.13134 -0.50868,-1.95203 z m -131.20987,-6.62069 c 0.009,-3.03449 0.22259,-4.1449 0.47622,-2.46759 0.25363,1.67731 0.24685,4.16007 -0.015,5.51724 -0.26192,1.35718 -0.46943,-0.0151 -0.46115,-3.04965 z m 18.75862,0 c 0.009,-3.03449 0.22259,-4.1449 0.47622,-2.46759 0.25364,1.67731 0.24685,4.16007 -0.015,5.51724 -0.26191,1.35718 -0.46943,-0.0151 -0.46115,-3.04965 z m 244.92819,0 c 0.0122,-2.42759 0.23822,-3.29076 0.50216,-1.91817 0.26393,1.37259 0.25391,3.35879 -0.0223,4.41379 -0.27618,1.055 -0.49214,-0.0681 -0.47989,-2.49562 z m 18.75862,0 c 0.0122,-2.42759 0.23822,-3.29076 0.50216,-1.91817 0.26393,1.37259 0.25391,3.35879 -0.0223,4.41379 -0.27618,1.055 -0.49214,-0.0681 -0.47989,-2.49562 z M 26.656988,205.24138 c 0,-1.51724 0.250453,-2.13793 0.556564,-1.37931 0.306109,0.75862 0.306109,2 0,2.75862 -0.306111,0.75862 -0.556564,0.13793 -0.556564,-1.37931 z m 243.862062,0 c 0,-1.51724 0.25046,-2.13793 0.55657,-1.37931 0.30611,0.75862 0.30611,2 0,2.75862 -0.30611,0.75862 -0.55657,0.13793 -0.55657,-1.37931 z m -132.5009,-3.95402 c 0.053,-1.28546 0.31442,-1.54692 0.66666,-0.66667 0.31875,0.79655 0.27956,1.74827 -0.0871,2.11495 -0.36668,0.36666 -0.62747,-0.28507 -0.57955,-1.44828 z M 39.172414,175.44828 c 1.098467,-1.2138 2.24549,-2.2069 2.548938,-2.2069 0.303448,0 -0.347022,0.9931 -1.44549,2.2069 -1.098467,1.21379 -2.245489,2.20689 -2.548938,2.20689 -0.303448,0 0.347023,-0.9931 1.44549,-2.20689 z m 218.377926,-0.27587 -2.10206,-2.48275 2.48276,2.10205 c 1.36551,1.15613 2.48275,2.27337 2.48275,2.48276 0,0.88304 -0.88804,0.23112 -2.86345,-2.10206 z m -83.20551,-3.5862 c 2.05879,-2.12414 3.99154,-3.86207 4.29498,-3.86207 0.30345,0 -1.13274,1.73793 -3.19153,3.86207 -2.0588,2.12414 -3.99154,3.86207 -4.29499,3.86207 -0.30345,0 1.13275,-1.73793 3.19154,-3.86207 z m -51.94559,-0.27586 -2.6751,-3.03449 3.03448,2.6751 c 2.83618,2.5003 3.54051,3.39387 2.6751,3.39387 -0.19765,0 -1.56316,-1.36552 -3.03448,-3.03448 z m -77.15786,-1.79593 c 0,-0.22913 0.868965,-1.0981 1.931034,-1.93104 1.750131,-1.37254 1.78916,-1.33351 0.416612,0.41662 -1.44151,1.83807 -2.347646,2.4226 -2.347646,1.51442 z M 250.342,168 c -1.37254,-1.75013 -1.33351,-1.78916 0.41662,-0.41662 1.06207,0.83294 1.93104,1.70191 1.93104,1.93104 0,0.90818 -0.90614,0.32365 -2.34766,-1.51442 z M 71.517242,155.93588 c 0.796551,-0.31875 1.748276,-0.27956 2.114943,0.0871 0.366666,0.36667 -0.285059,0.62747 -1.448276,0.57955 -1.285455,-0.053 -1.546924,-0.31441 -0.666667,-0.66665 z m 153.379308,0 c 0.79655,-0.31875 1.74827,-0.27956 2.11495,0.0871 0.36666,0.36667 -0.28507,0.62747 -1.44828,0.57955 -1.28546,-0.053 -1.54692,-0.31441 -0.66667,-0.66665 z M 79.724138,154.79586 c 1.668966,-0.25283 4.4,-0.25283 6.068966,0 1.668965,0.25282 0.303448,0.45969 -3.034483,0.45969 -3.337931,0 -4.703448,-0.20687 -3.034483,-0.45969 z m 132.413792,0 c 1.66897,-0.25283 4.4,-0.25283 6.06897,0 1.66896,0.25282 0.30345,0.45969 -3.03449,0.45969 -3.33793,0 -4.70344,-0.20687 -3.03448,-0.45969 z m 131.88183,-0.009 c 1.98329,-0.24559 4.9626,-0.24052 6.62069,0.0113 1.6581,0.25179 0.0354,0.45271 -3.60597,0.44652 -3.64137,-0.007 -4.998,-0.21219 -3.01472,-0.45777 z m 132.96676,0.035 c 1.07362,-0.27976 2.56328,-0.26137 3.31034,0.0409 0.74707,0.30227 -0.13134,0.53117 -1.95203,0.50868 -1.82069,-0.0225 -2.43193,-0.26979 -1.35831,-0.54956 z M 81.392176,136.04716 c 1.372594,-0.26393 3.3588,-0.25391 4.413793,0.0223 1.054994,0.27618 -0.06804,0.49214 -2.495624,0.47989 -2.427586,-0.0122 -3.290762,-0.23822 -1.918169,-0.50216 z m 131.310344,0 c 1.37259,-0.26393 3.3588,-0.25391 4.4138,0.0223 1.05499,0.27618 -0.0681,0.49214 -2.49563,0.47989 -2.42759,-0.0122 -3.29076,-0.23822 -1.91817,-0.50216 z m 132.4138,0 c 1.37259,-0.26393 3.35879,-0.25391 4.41379,0.0223 1.055,0.27618 -0.0681,0.49214 -2.49563,0.47989 -2.42758,-0.0122 -3.29075,-0.23822 -1.91816,-0.50216 z m 131.29748,0.002 c 1.36551,-0.26302 3.6,-0.26302 4.96551,0 1.36552,0.26301 0.24828,0.4782 -2.48276,0.4782 -2.73103,0 -3.84827,-0.21519 -2.48275,-0.4782 z m -404.896558,-1.0788 c 0.796551,-0.31875 1.748276,-0.27956 2.114943,0.0871 0.366666,0.36668 -0.285059,0.62747 -1.448276,0.57956 -1.285455,-0.053 -1.546924,-0.31442 -0.666667,-0.66666 z m 20.965517,0 c 0.796552,-0.31875 1.748276,-0.27956 2.114943,0.0871 0.366666,0.36668 -0.285058,0.62747 -1.448276,0.57956 -1.285454,-0.053 -1.546924,-0.31442 -0.666667,-0.66666 z m 111.448281,0 c 0.79654,-0.31875 1.74827,-0.27956 2.11494,0.0871 0.36667,0.36668 -0.28506,0.62747 -1.44827,0.57956 -1.28547,-0.053 -1.54693,-0.31442 -0.66667,-0.66666 z m 20.96551,0 c 0.79655,-0.31875 1.74827,-0.27956 2.11495,0.0871 0.36666,0.36668 -0.28507,0.62747 -1.44828,0.57956 -1.28546,-0.053 -1.54692,-0.31442 -0.66667,-0.66666 z m 110.34483,0 c 0.79655,-0.31875 1.74828,-0.27956 2.11495,0.0871 0.36666,0.36668 -0.28507,0.62747 -1.44828,0.57956 -1.28546,-0.053 -1.54692,-0.31442 -0.66667,-0.66666 z m 20.96552,0 c 0.79654,-0.31875 1.74828,-0.27956 2.11494,0.0871 0.36667,0.36668 -0.28506,0.62747 -1.44827,0.57956 -1.28546,-0.053 -1.54693,-0.31442 -0.66667,-0.66666 z m -164.75081,-3.64738 c -0.38658,-0.6255 0.0564,-0.81048 1.03832,-0.43367 1.91164,0.73357 2.2614,1.52448 0.67416,1.52448 -0.57107,0 -1.3417,-0.49087 -1.71248,-1.09081 z m -145.767827,-9.11608 -2.102056,-2.48276 2.482759,2.10206 c 2.33318,1.97541 2.985093,2.86346 2.102055,2.86346 -0.209387,0 -1.326628,-1.11725 -2.482758,-2.48276 z m 205.346217,0.27586 c 1.09848,-1.21379 2.2455,-2.2069 2.54895,-2.2069 0.30345,0 -0.34703,0.99311 -1.4455,2.2069 -1.09847,1.21379 -2.24549,2.2069 -2.54894,2.2069 -0.30345,0 0.34702,-0.99311 1.44549,-2.2069 z m 58.89373,0.27586 c -1.37255,-1.75013 -1.33352,-1.78916 0.41662,-0.41662 1.06207,0.83294 1.93103,1.70191 1.93103,1.93104 0,0.90818 -0.90614,0.32365 -2.34765,-1.51442 z m -187.44545,-3.03448 c 1.42538,-1.51724 2.83987,-2.75862 3.14332,-2.75862 0.30344,0 -0.61449,1.24138 -2.03987,2.75862 -1.42538,1.51724 -2.83987,2.75862 -3.14332,2.75862 -0.30345,0 0.61449,-1.24138 2.03987,-2.75862 z m 51.77855,-0.27586 -2.6751,-3.03449 3.03448,2.6751 c 1.66897,1.47132 3.03448,2.83684 3.03448,3.03449 0,0.86541 -0.89357,0.16108 -3.39386,-2.6751 z m 210.84214,1.51441 c 0,-0.22913 0.86897,-1.09809 1.93103,-1.93103 1.75014,-1.37255 1.78917,-1.33352 0.41662,0.41662 -1.44151,1.83807 -2.34765,2.4226 -2.34765,1.51441 z m -344.932429,-4.27303 -2.102055,-2.48276 2.482758,2.10206 c 2.333181,1.97541 2.985094,2.86345 2.102056,2.86345 -0.209387,0 -1.326628,-1.11724 -2.482759,-2.48275 z M 256,117.65235 c 0,-0.22913 0.86897,-1.0981 1.93104,-1.93104 1.75013,-1.37254 1.78916,-1.33351 0.41661,0.41662 C 256.90614,117.976 256,118.56053 256,117.65235 Z m 46.79171,-2.06614 -2.10205,-2.48276 2.48276,2.10206 c 2.33317,1.97541 2.98509,2.86346 2.10205,2.86346 -0.20939,0 -1.32663,-1.11725 -2.48276,-2.48276 z M 126.89655,114.342 c 0,-0.22913 0.86897,-1.09809 1.93104,-1.93103 1.75013,-1.37255 1.78916,-1.33352 0.41661,0.41662 -1.44151,1.83807 -2.34765,2.4226 -2.34765,1.51441 z m 41.79028,-1.51441 c -1.37255,-1.75014 -1.33352,-1.78917 0.41662,-0.41662 1.83807,1.44151 2.4226,2.34765 1.51442,2.34765 -0.22914,0 -1.0981,-0.86896 -1.93104,-1.93103 z M 138.01815,89.839081 c 0.053,-1.285454 0.31442,-1.546924 0.66666,-0.666667 0.31875,0.796552 0.27956,1.748276 -0.0871,2.114943 -0.36668,0.366666 -0.62747,-0.285058 -0.57955,-1.448276 z m 20.96552,0 c 0.053,-1.285454 0.31442,-1.546924 0.66666,-0.666667 0.31875,0.796552 0.27956,1.748276 -0.0871,2.114943 -0.36668,0.366666 -0.62747,-0.285058 -0.57956,-1.448276 z m 242.75862,0 c 0.053,-1.285454 0.31442,-1.546924 0.66666,-0.666667 0.31875,0.796552 0.27956,1.748276 -0.0871,2.114943 -0.36667,0.366666 -0.62747,-0.285058 -0.57955,-1.448276 z M 290.38112,87.172414 c 0,-1.517241 0.25046,-2.137931 0.55657,-1.37931 0.30611,0.758621 0.30611,2 0,2.758621 -0.30611,0.75862 -0.55657,0.137931 -0.55657,-1.379311 z M 26.656988,86.068966 c 0,-1.517241 0.250453,-2.137931 0.556564,-1.37931 0.306109,0.75862 0.306109,2 0,2.75862 -0.306111,0.758621 -0.556564,0.137931 -0.556564,-1.37931 z m 243.862062,0 c 0,-1.517241 0.25046,-2.137931 0.55657,-1.37931 0.30611,0.75862 0.30611,2 0,2.75862 -0.30611,0.758621 -0.55657,0.137931 -0.55657,-1.37931 z M 421.85917,80 c 0.007,-3.641379 0.21219,-4.998003 0.45778,-3.014721 0.24558,1.983283 0.24051,4.962593 -0.0113,6.62069 -0.25178,1.658097 -0.45271,0.03541 -0.44652,-3.605969 z m -282.50909,0 c 0.009,-3.034482 0.22259,-4.144897 0.47622,-2.467586 0.25363,1.67731 0.24685,4.160069 -0.015,5.517242 -0.26198,1.357171 -0.4695,-0.01517 -0.46122,-3.049656 z m 18.75862,0 c 0.009,-3.034482 0.22259,-4.144897 0.47622,-2.467586 0.25364,1.67731 0.24685,4.160069 -0.015,5.517242 C 158.30794,84.406827 158.10043,83.034483 158.1087,80 Z m 244.90592,-0.551724 c 0,-2.124138 0.22709,-2.993103 0.50464,-1.931034 0.27754,1.062069 0.27754,2.8 0,3.862069 -0.27755,1.062069 -0.50464,0.193103 -0.50464,-1.931035 z M 26.697875,73.379311 c 0.02249,-1.82069 0.269791,-2.43193 0.549563,-1.35831 0.279772,1.073619 0.261373,2.563274 -0.04088,3.310345 C 26.904291,76.078416 26.675387,75.2 26.697875,73.379311 Z m 243.862075,0 c 0.0225,-1.82069 0.26979,-2.43193 0.54956,-1.35831 0.27977,1.073619 0.26137,2.563274 -0.0409,3.310345 -0.30221,0.74707 -0.53111,-0.131346 -0.50862,-1.952035 z m 19.73407,-1.195402 c 0.053,-1.285455 0.31441,-1.546924 0.66665,-0.666667 0.31876,0.796551 0.27956,1.748276 -0.0871,2.114943 -0.36666,0.366666 -0.62746,-0.285059 -0.57955,-1.448276 z m 243.86207,0 c 0.053,-1.285455 0.31441,-1.546924 0.66665,-0.666667 0.31876,0.796551 0.27956,1.748276 -0.0871,2.114943 -0.36666,0.366666 -0.62746,-0.285059 -0.57955,-1.448276 z M 138.01815,68.873564 c 0.053,-1.285454 0.31442,-1.546924 0.66666,-0.666667 0.31875,0.796552 0.27956,1.748276 -0.0871,2.114943 -0.36668,0.366666 -0.62747,-0.285058 -0.57955,-1.448276 z m 20.96552,0 c 0.053,-1.285454 0.31442,-1.546924 0.66666,-0.666667 0.31875,0.796552 0.27956,1.748276 -0.0871,2.114943 -0.36668,0.366666 -0.62747,-0.285058 -0.57956,-1.448276 z m 242.75862,0 c 0.053,-1.285454 0.31442,-1.546924 0.66666,-0.666667 0.31875,0.796552 0.27956,1.748276 -0.0871,2.114943 -0.36667,0.366666 -0.62747,-0.285058 -0.57955,-1.448276 z M 0.17422868,50.758621 c 0,-1.517241 0.25045372,-2.137931 0.55656382,-1.37931 0.3061101,0.75862 0.3061101,2 0,2.75862 -0.3061101,0.758621 -0.55656382,0.137931 -0.55656382,-1.37931 z m 563.86207132,0 c 0,-1.517241 0.25046,-2.137931 0.55656,-1.37931 0.30611,0.75862 0.30611,2 0,2.75862 -0.3061,0.758621 -0.55656,0.137931 -0.55656,-1.37931 z M 125.65235,43.310345 c -1.37255,-1.750131 -1.33352,-1.78916 0.41662,-0.416612 1.06207,0.832931 1.93103,1.701896 1.93103,1.931034 0,0.908176 -0.90614,0.323645 -2.34765,-1.514422 z m 44.27869,1.514422 c 0,-0.229138 0.86896,-1.098103 1.93103,-1.931034 1.75013,-1.372548 1.78916,-1.333519 0.41662,0.416612 -1.44151,1.838067 -2.34765,2.422598 -2.34765,1.514422 z m 218.92964,-2.066146 -2.10206,-2.482759 2.48276,2.102056 c 1.36552,1.15613 2.48276,2.273372 2.48276,2.482759 0,0.883037 -0.88804,0.231125 -2.86346,-2.102056 z m -85.4124,-0.06942 c 0,-0.189903 1.61379,-1.803696 3.5862,-3.586207 l 3.58621,-3.240928 -3.24093,3.586207 c -3.02099,3.342847 -3.93148,4.093409 -3.93148,3.240928 z M 42.482759,39.724138 c 1.098467,-1.213793 2.245489,-2.206896 2.548938,-2.206896 0.303448,0 -0.347023,0.993103 -1.44549,2.206896 -1.098467,1.213793 -2.24549,2.206897 -2.548938,2.206897 -0.303448,0 0.347023,-0.993104 1.44549,-2.206897 z m 211.757231,-0.275862 -2.10206,-2.482759 2.48276,2.102056 c 2.33318,1.975413 2.98509,2.863462 2.10206,2.863462 -0.20939,0 -1.32663,-1.117242 -2.48276,-2.482759 z m 263.72414,0 -2.10206,-2.482759 2.48276,2.102056 c 1.36552,1.15613 2.48276,2.273372 2.48276,2.482759 0,0.883038 -0.88805,0.231125 -2.86346,-2.102056 z m -399.44828,-3.310345 -2.10206,-2.482758 2.48276,2.102055 c 1.36552,1.156131 2.48276,2.273372 2.48276,2.482759 0,0.883038 -0.88804,0.231125 -2.86346,-2.102056 z m 59.69105,0.275862 c 1.09847,-1.213793 2.24549,-2.206896 2.54894,-2.206896 0.30345,0 -0.34702,0.993103 -1.44549,2.206896 -1.09848,1.213793 -2.2455,2.206897 -2.54895,2.206897 -0.30345,0 0.34703,-0.993104 1.4455,-2.206897 z m 204.03309,-0.275862 -2.10206,-2.482758 2.48276,2.102055 c 1.36552,1.156131 2.48276,2.273372 2.48276,2.482759 0,0.883038 -0.88804,0.231125 -2.86346,-2.102056 z M 74.758621,23.545069 c 0.758621,-0.306109 2,-0.306109 2.758621,0 0.75862,0.306111 0.137931,0.556564 -1.379311,0.556564 -1.517241,0 -2.137931,-0.250453 -1.37931,-0.556564 z m 14.344828,0 c 0.75862,-0.306109 2,-0.306109 2.75862,0 0.758621,0.306111 0.137931,0.556564 -1.37931,0.556564 -1.517241,0 -2.137931,-0.250453 -1.37931,-0.556564 z m 116.965521,0 c 0.75862,-0.306109 2,-0.306109 2.75862,0 0.75862,0.306111 0.13793,0.556564 -1.37931,0.556564 -1.51724,0 -2.13793,-0.250453 -1.37931,-0.556564 z m 14.34482,0 c 0.75862,-0.306109 2,-0.306109 2.75862,0 0.75863,0.306111 0.13794,0.556564 -1.37931,0.556564 -1.51724,0 -2.13793,-0.250453 -1.37931,-0.556564 z m 118.06897,0 c 0.75862,-0.306109 2,-0.306109 2.75862,0 0.75862,0.306111 0.13793,0.556564 -1.37931,0.556564 -1.51724,0 -2.13793,-0.250453 -1.37931,-0.556564 z m 14.41379,-0.02298 c 0.79655,-0.318755 1.74828,-0.279552 2.11495,0.08712 0.36666,0.366667 -0.28507,0.627466 -1.44828,0.579553 -1.28546,-0.05294 -1.54692,-0.314418 -0.66667,-0.666667 z M 49.379311,0.37265578 c 0.75862,-0.3061101 2,-0.3061101 2.75862,0 0.758621,0.3061101 0.137931,0.55656382 -1.37931,0.55656382 -1.517241,0 -2.137931,-0.25045372 -1.37931,-0.55656382 z m 463.448279,0 c 0.75862,-0.3061101 2,-0.3061101 2.75862,0 0.75862,0.3061101 0.13793,0.55656382 -1.37931,0.55656382 -1.51724,0 -2.13793,-0.25045372 -1.37931,-0.55656382 z"
         id="path326" />
      <path
         style="fill:#f0d78c;stroke-width:1.10345"
         d="m 71.074129,530.2247 c -28.34114,-6.1665 -47.83354,-34.16854 -43.705945,-62.78629 4.060795,-28.15459 27.017618,-48.15371 55.230807,-48.11497 13.477101,0.0185 25.844229,3.89856 34.331539,10.77117 l 2.70256,2.1884 -19.54068,20.17331 c -10.747378,11.09533 -19.540685,20.98751 -19.540685,21.98263 0,0.99514 0.595862,2.40519 1.324137,3.13347 3.396869,3.39686 6.160421,1.37602 25.548428,-18.68223 l 19.33785,-20.00636 3.38132,5.33179 c 5.81754,9.17331 8.08646,16.57947 8.63457,28.18487 0.37377,7.914 0.0248,12.25685 -1.37433,17.10345 -6.17746,21.39857 -21.86234,36.22087 -43.058872,40.69091 -9.290467,1.95922 -14.373394,1.96574 -23.270699,0.0298 z m 263.724141,0 c -20.83063,-4.53236 -37.92019,-21.51015 -42.89489,-42.61434 -5.34032,-22.65531 4.11765,-46.23204 23.82579,-59.39263 9.2068,-6.14806 18.70759,-8.90738 30.66954,-8.90738 16.60147,0 30.02512,5.62555 40.67027,17.04401 10.97497,11.77224 15.68964,23.57073 15.68964,39.26341 0,26.37032 -18.60629,49.09494 -44.68965,54.58129 -9.29436,1.95497 -14.37779,1.96057 -23.2707,0.0256 z M 199.83959,397.70205 c -6.03612,-1.62321 -13.90053,-5.47831 -18.81526,-9.2232 l -2.69982,-2.05717 39.02896,-39.55567 c 21.46593,-21.75561 39.41281,-39.7123 39.88197,-39.90374 0.46916,-0.19144 2.58575,2.29131 4.70353,5.51725 21.03913,32.04799 4.18007,75.58995 -33.0193,85.27917 -8.03001,2.09155 -21.18702,2.06592 -29.08008,-0.0566 z m -32.55203,-24.3608 c -5.71,-9.10428 -8.39672,-18.56669 -8.36403,-29.45749 0.0148,-4.94296 0.5416,-11.22169 1.17058,-13.95272 3.24016,-14.06862 15.11318,-29.3119 28.15751,-36.15026 18.06937,-9.47267 40.17742,-8.66806 56.91331,2.07133 l 5.34309,3.42864 -31.92873,32.70445 c -17.5608,17.98746 -35.37596,36.10112 -39.58924,40.25261 l -7.66052,7.54814 z m 167.36155,-106.799 c -7.1785,-1.63516 -21.01894,-8.2922 -23.82425,-11.45909 -1.48213,-1.67317 1.9901,-5.5089 37.92947,-41.90022 l 39.56096,-40.05844 3.46052,4.7481 c 12.83591,17.61179 14.68015,40.07812 4.87889,59.43409 -11.31906,22.35342 -37.67145,34.77852 -62.00559,29.23556 z m -35.75704,-25.16491 c -19.23986,-31.08901 -3.82951,-72.81458 30.87934,-83.60997 8.76142,-2.72504 23.72524,-2.92035 32.23521,-0.42074 6.91652,2.03157 18.8994,8.11384 18.44175,9.36065 -0.48548,1.32258 -77.1218,79.36193 -77.93296,79.35971 -0.39726,-0.001 -2.02777,-2.11142 -3.62334,-4.68965 z M 463.56373,133.97791 c -6.90888,-1.8579 -14.97233,-6.03607 -20.1841,-10.45862 l -3.65549,-3.10194 19.58621,-19.66814 c 12.5502,-12.602707 19.5862,-20.476731 19.5862,-21.91902 0,-2.670272 -1.97787,-4.899155 -4.34743,-4.899155 -0.93453,0 -10.46253,8.753231 -21.17332,19.451626 -11.59709,11.583669 -19.97883,19.139719 -20.72183,18.680539 -1.82956,-1.13074 -6.21114,-10.20226 -8.25505,-17.091063 -2.51977,-8.492664 -2.33294,-23.438947 0.40294,-32.235215 8.60481,-27.665798 37.95937,-44.506375 66.03947,-37.88654 10.8871,2.566617 18.77424,6.941367 26.80334,14.866969 31.22945,30.826935 17.47178,83.214589 -24.80979,94.472849 -7.2843,1.93959 -21.6567,1.83535 -29.27115,-0.21229 z"
         id="path324" />
      <path
         style="fill:#92acf7;stroke-width:1.10345;fill-opacity:1"
         d="M 47.191008,563.76953 C 24.457313,560.4387 4.5021628,540.07966 1.1336023,516.77993 -0.35275424,506.49907 -0.35275424,58.466448 1.1336023,48.185586 4.5780261,24.361122 24.361122,4.5780261 48.185586,1.1336023 c 10.280862,-1.48635654 458.313484,-1.48635654 468.594344,0 23.82446,3.4444238 43.60756,23.2275197 47.05198,47.0519837 1.50184,10.387904 1.48515,458.321034 -0.0174,468.717724 -3.39426,23.48522 -23.42592,43.51687 -46.91114,46.91114 -9.4446,1.365 -460.383544,1.32187 -469.712299,-0.0449 z m 49.136503,-33.55059 c 21.875209,-5.69777 38.787649,-23.82609 42.732969,-45.80514 2.27741,-12.68724 -1.15728,-29.10735 -8.31269,-39.74024 l -3.83562,-5.69971 25.50352,-26.2868 25.50353,-26.28678 5.40428,3.88258 c 17.39908,12.5 43.4472,12.7244 62.30387,0.53675 24.0678,-15.55576 32.73147,-47.41264 19.82225,-72.88774 -1.48867,-2.93776 -3.91004,-6.7777 -5.38083,-8.53317 l -2.67414,-3.19179 25.64717,-26.42132 25.64719,-26.42132 3.6059,3.03416 c 19.50199,16.40985 51.47631,15.33174 71.76908,-2.41988 22.48715,-19.67121 25.64419,-55.19505 6.91495,-77.80866 l -2.60103,-3.14047 25.44596,-26.27894 25.44596,-26.27895 2.90264,2.69008 c 10.46668,9.70019 29.54389,15.02785 44.99995,12.56706 27.16112,-4.32438 48,-28.66987 48,-56.077078 0,-31.06205 -25.59973,-56.518645 -56.78356,-56.466071 -21.22646,0.03578 -40.67989,12.025766 -50.12331,30.893139 -9.01508,18.011562 -8.49807,37.404034 1.44975,54.37871 1.56003,2.66199 2.83643,5.26869 2.83643,5.79265 0,0.52397 -11.47654,12.46725 -25.50341,26.54064 l -25.50341,25.58797 -6.25001,-3.72312 c -6.83372,-4.07082 -21.03928,-8.18382 -28.16106,-8.15358 -25.75456,0.10935 -50.74535,20.22228 -55.88869,44.98003 -2.88162,13.87085 0.20244,30.58396 7.87662,42.68487 l 3.40517,5.3694 -25.80148,25.80148 -25.80148,25.80147 -6.56544,-3.95448 c -13.62653,-8.20753 -29.72823,-10.44589 -44.89313,-6.24079 -19.9367,5.52829 -35.77685,22.71227 -40.20569,43.61664 -2.86509,13.52338 0.2787,29.94538 7.88513,41.18903 2.1393,3.16227 3.88963,6.14563 3.88963,6.62969 0,0.48406 -11.42161,12.29364 -25.38136,26.24348 -22.34069,22.32486 -25.61246,25.20107 -27.31034,24.00854 -15.37486,-10.79864 -31.499356,-14.52221 -47.045367,-10.86401 -37.232156,8.76127 -55.822982,49.05924 -38.031845,82.43882 6.907754,12.96028 21.972779,24.54072 36.502446,28.05933 7.998312,1.93692 19.018742,1.91763 26.559497,-0.0465 z m 136.962719,-1.60809 c 27.17348,-9.46752 43.59415,-39.41448 36.51491,-66.59353 -5.77546,-22.1735 -24.24549,-39.1911 -46.35686,-42.7115 -26.95639,-4.29178 -53.59749,12.20399 -62.38072,38.62522 -3.23921,9.74405 -3.26097,24.19986 -0.0517,34.37233 5.77903,18.318 21.56455,33.07907 40.51143,37.88233 8.52397,2.16094 23.11734,1.43738 31.76297,-1.57485 z m 126.76142,1.60809 c 36.76091,-9.575 54.32017,-50.46482 35.78105,-83.32239 -11.45658,-20.30488 -36.76245,-32.04029 -59.08132,-27.39852 -12.82936,2.66821 -20.54194,6.79286 -29.4599,15.75505 -12.02798,12.08763 -17.08458,23.86192 -17.08458,39.78141 0,31.35704 24.79396,56.33403 56.31989,56.73565 3.96905,0.0505 10.05523,-0.64748 13.52486,-1.5512 z m 136.96272,-1.60809 c 11.72501,-4.08511 23.64725,-13.75025 30.22064,-24.4993 13.08445,-21.39615 9.18088,-50.65863 -9.21127,-69.05078 -35.20872,-35.20871 -95.7113,-9.96341 -95.80053,39.97372 -0.0466,26.07119 17.61479,48.70861 43.02819,55.15121 8.52397,2.16094 23.11734,1.43738 31.76297,-1.57485 z M 97.266551,398.23421 c 11.664719,-2.94769 23.138469,-10.75616 30.932059,-21.05084 17.25617,-22.79392 14.99159,-53.42918 -5.43965,-73.5878 -11.81378,-11.65616 -23.726696,-16.69902 -39.448615,-16.69902 -31.317792,0 -56.827586,25.26213 -56.827586,56.27587 0,36.93773 34.942404,64.11897 70.783792,55.06179 z m 264.740069,-0.54635 c 9.70667,-2.85111 18.1297,-7.95867 25.10602,-15.22377 10.82641,-11.27458 15.72791,-23.51993 15.733,-39.30552 0.0161,-50.08358 -60.54251,-75.07825 -95.99874,-39.62202 -29.57435,29.57435 -17.76832,79.73533 21.98069,93.39073 8.89614,3.05619 24.17143,3.40636 33.17903,0.76058 z m 134.66949,-0.86195 c 34.96431,-12.34263 49.32297,-53.78425 29.15793,-84.15499 -20.17258,-30.3821 -60.88559,-34.69348 -86.842,-9.1963 -12.96809,12.73864 -18.86223,29.85891 -16.35822,47.51449 3.09149,21.79782 17.23997,38.63632 38.60756,45.94792 10.20499,3.49196 25.36254,3.44443 35.43473,-0.11112 z M 96.40711,266.47406 c 10.45112,-2.72217 18.38864,-7.2362 26.17898,-14.88785 22.64403,-22.24096 22.81483,-57.51096 0.38709,-79.93869 -12.48582,-12.48583 -30.415757,-18.68472 -47.085579,-16.27884 -33.819258,4.881 -56.169548,37.78239 -47.715251,70.24065 4.987527,19.1484 20.485388,34.95052 39.689719,40.46892 8.322145,2.39137 20.24864,2.55675 28.545041,0.39581 z m 132.39914,-0.0842 c 19.63359,-5.06212 35.85686,-21.2173 40.95244,-40.78053 8.43021,-32.36579 -13.86341,-65.35309 -47.44357,-70.20104 -7.39576,-1.06773 -10.20473,-0.98202 -17.62546,0.53783 -23.82409,4.87944 -40.57558,21.61252 -45.40484,45.35494 -8.03638,39.50991 30.13187,75.24459 69.52143,65.0888 z m 262.82399,0.0593 c 14.03933,-3.60506 27.06889,-12.8792 34.61426,-24.63765 7.68845,-11.98139 10.6163,-28.7327 7.40443,-42.36326 -11.20254,-47.54121 -71.3307,-60.24301 -100.55297,-21.24136 -21.09276,28.15156 -10.93824,68.71895 21.03529,84.03614 12.43426,5.95675 25.13402,7.38123 37.49899,4.20613 z M 101.02665,133.41812 c 13.18367,-4.07202 26.61047,-15.89725 33.09175,-29.14451 18.05877,-36.910794 -9.60215,-81.018554 -50.852083,-81.088099 -48.777898,-0.08224 -74.8035604,57.69991 -42.375904,94.082929 15.131881,16.97759 37.771416,23.05748 60.136237,16.14968 z m 131.45935,-0.0312 c 23.04143,-7.46377 38.96228,-29.50426 38.96228,-53.938614 0,-25.282242 -17.81605,-48.149463 -42.52861,-54.586271 -32.43218,-8.447507 -65.40876,13.875795 -70.15663,47.492111 -2.87054,20.324123 6.31695,41.549234 22.95435,53.029594 9.39345,6.48181 14.92334,8.6998 26.83434,10.76304 5.01569,0.86883 16.99709,-0.51277 23.93427,-2.75991 z m 132.20366,-0.0556 c 30.15068,-9.98505 46.27633,-43.885951 34.96347,-73.503624 -14.6876,-38.452954 -63.87712,-49.092202 -92.88017,-20.089142 -22.14576,22.145756 -22.18778,57.368628 -0.0949,79.540386 15.65169,15.70758 37.23013,20.93461 58.01159,14.05238 z"
         id="path322" />
      <path
         style="fill:#eaa091;stroke-width:1.10345"
         d="m 206.34483,531.09975 c -21.84651,-3.65702 -40.25958,-20.37485 -45.95101,-41.72044 -0.80909,-3.03448 -1.47696,-9.56149 -1.48417,-14.50445 -0.0363,-24.92542 15.35393,-45.5377 40.21664,-53.86243 7.95321,-2.66298 23.45681,-2.4515 32.76329,0.44689 27.63496,8.60657 44.50306,37.98326 37.89738,66.00029 -5.04077,21.3797 -22.22844,38.31807 -43.44544,42.81532 -7.04913,1.49415 -14.22899,1.79031 -19.99669,0.82482 z m 260.96552,-0.52902 c -7.4682,-1.41386 -19.84753,-7.57954 -26.09062,-12.99473 -6.60491,-5.72905 -12.72823,-15.00801 -15.97667,-24.21024 -3.03199,-8.58903 -3.53133,-23.64676 -1.08843,-32.82133 3.79317,-14.24566 14.93081,-28.09894 28.15023,-35.01397 9.72234,-5.0857 15.10394,-6.38046 26.45059,-6.36366 22.35887,0.0331 40.55299,11.49452 50.41926,31.76178 20.14602,41.38383 -16.27636,88.27281 -61.86436,79.64215 z m -354.75863,-77.4701 c 0,-0.22914 0.86897,-1.0981 1.93104,-1.93104 1.75013,-1.37255 1.78916,-1.33352 0.41662,0.41662 -1.44151,1.83807 -2.34766,2.4226 -2.34766,1.51442 z M 331.03448,397.3652 c -28.94334,-9.36835 -45.57274,-36.84689 -39.60818,-65.44882 4.35003,-20.85974 22.94069,-39.45039 43.80043,-43.80043 28.97467,-6.04228 58.28003,12.11845 65.92898,40.85665 3.36491,12.64245 1.4051,29.5733 -4.76347,41.15169 -3.83245,7.19352 -15.76409,19.12516 -22.9576,22.95761 -12.04942,6.41951 -30.15088,8.24813 -42.40016,4.2833 z m 132.52925,0.33685 c -9.14106,-2.45817 -16.51606,-6.91029 -24.51222,-14.7975 -11.52456,-11.3675 -16.43082,-23.25667 -16.43082,-39.81618 0,-26.64637 17.2675,-48.39295 43.29901,-54.5305 12.99795,-3.06457 25.47397,-1.55775 38.35616,4.63256 8.17517,3.92843 20.8077,16.64853 24.63955,24.81034 15.47005,32.95106 -0.84848,69.48008 -35.59844,79.68709 -7.39831,2.17309 -21.69971,2.1799 -29.75324,0.0142 z m -223.012,-74.80832 c 0,-0.22913 0.86896,-1.0981 1.93103,-1.93104 1.75013,-1.37254 1.78916,-1.33351 0.41662,0.41662 -1.44151,1.83807 -2.34765,2.4226 -2.34765,1.51442 z M 475.31035,267.3397 c 1.97241,-0.24477 5.2,-0.24477 7.17241,0 1.97241,0.24478 0.35862,0.44505 -3.58621,0.44505 -3.94482,0 -5.55862,-0.20027 -3.5862,-0.44505 z m 38.34482,-12.44315 c 1.09848,-1.21379 2.2455,-2.20689 2.54895,-2.20689 0.30345,0 -0.34703,0.9931 -1.4455,2.20689 -1.09847,1.2138 -2.24549,2.2069 -2.54894,2.2069 -0.30345,0 0.34702,-0.9931 1.44549,-2.2069 z m -75.6456,-4.13793 -3.80267,-4.13793 4.13793,3.80267 c 2.27586,2.09147 4.13793,3.95354 4.13793,4.13793 0,0.84262 -0.93376,0.0489 -4.47319,-3.80267 z m 81.71457,-1.93103 c 1.42538,-1.51724 2.83987,-2.75862 3.14332,-2.75862 0.30344,0 -0.61449,1.24138 -2.03987,2.75862 -1.42538,1.51724 -2.83987,2.75862 -3.14332,2.75862 -0.30345,0 0.61449,-1.24138 2.03987,-2.75862 z m -97.01633,-27.67816 c 0.053,-1.28546 0.31442,-1.54692 0.66666,-0.66667 0.31875,0.79655 0.27956,1.74827 -0.0871,2.11495 -0.36667,0.36666 -0.62747,-0.28507 -0.57956,-1.44828 z m 111.70308,-9.83908 c 0.007,-3.64138 0.2122,-4.99801 0.45778,-3.01472 0.24558,1.98328 0.24052,4.96259 -0.0112,6.62069 -0.25179,1.65809 -0.45272,0.0354 -0.44653,-3.60597 z M 368.55173,192.68683 c 0,-0.22913 0.86896,-1.0981 1.93103,-1.93103 1.75014,-1.37255 1.78916,-1.33352 0.41662,0.41661 -1.44151,1.83807 -2.34765,2.4226 -2.34765,1.51442 z m 64,-14.34483 c 0,-0.22913 0.86896,-1.09809 1.93103,-1.93103 1.75014,-1.37255 1.78916,-1.33352 0.41662,0.41662 -1.44151,1.83807 -2.34765,2.4226 -2.34765,1.51441 z m 84.90612,-7.03165 -3.80268,-4.13794 4.13794,3.80267 c 2.27586,2.09147 4.13793,3.95354 4.13793,4.13794 0,0.84261 -0.93376,0.0489 -4.47319,-3.80267 z m -48.69923,-15.37447 c 0.79655,-0.31875 1.74828,-0.27956 2.11495,0.0871 0.36666,0.36667 -0.28507,0.62747 -1.44828,0.57955 -1.28546,-0.053 -1.54692,-0.31441 -0.66667,-0.66665 z m 18.75862,0 c 0.79655,-0.31875 1.74829,-0.27956 2.11495,0.0871 0.36666,0.36667 -0.28506,0.62747 -1.44828,0.57955 -1.28546,-0.053 -1.54692,-0.31441 -0.66667,-0.66665 z"
         id="path320" />
      <path
         style="fill:#ea9f91;stroke-width:1.10345"
         d="m 461.2159,264.52323 c -27.94993,-9.5301 -44.02556,-38.45322 -36.84714,-66.29499 6.47886,-25.12842 28.91364,-42.64203 54.62409,-42.64203 23.45343,0 45.85599,16.726 52.88551,39.48492 2.5998,8.41718 2.89682,22.31618 0.65667,30.72927 -4.93293,18.52617 -21.17398,34.76722 -39.70015,39.70015 -8.86612,2.36077 -23.12127,1.92016 -31.61898,-0.97732 z"
         id="path318" />
      <path
         style="fill:#a89d72;stroke-width:1.10345"
         d="m 99.310345,466.2069 c 6.959515,-6.97931 12.901935,-12.68966 13.205385,-12.68966 0.30345,0 -5.14243,5.71035 -12.10194,12.68966 -6.959508,6.97931 -12.901929,12.68965 -13.205377,12.68965 -0.303448,0 5.142421,-5.71034 12.101932,-12.68965 z m -18.671507,7.63219 c 0.05294,-1.28547 0.314418,-1.54693 0.666668,-0.66667 0.318754,0.79654 0.279552,1.74828 -0.08712,2.11494 -0.366667,0.36667 -0.627466,-0.28506 -0.579553,-1.44827 z m 25.276862,-27.2184 c 8.18467,-8.34483 15.01226,-15.17241 15.17242,-15.17241 0.79112,0 -0.78703,1.63991 -14.88122,15.4636 l -15.172417,14.88123 z m 46.91189,-35.03448 c 2.98885,-3.03448 5.68256,-5.51724 5.98601,-5.51724 0.30344,0 -1.89371,2.48276 -4.88256,5.51724 -2.98886,3.03448 -5.68256,5.51724 -5.98601,5.51724 -0.30345,0 1.8937,-2.48276 4.88256,-5.51724 z m 29.22166,-42.2069 c 10.7432,-11.01774 12.15765,-12.36341 12.15765,-11.56649 0,0.16256 -5.33793,5.50049 -11.86207,11.86207 l -11.86207,11.56649 z m 39.74385,-27.86207 c 10,-10.01379 18.4301,-18.20689 18.73354,-18.20689 0.30345,0 -7.63009,8.1931 -17.63009,18.20689 -10,10.0138 -18.43009,18.2069 -18.73354,18.2069 -0.30344,0 7.63009,-8.1931 17.63009,-18.2069 z m 12.68966,-25.93103 c 8.48029,-8.49655 15.66699,-15.44828 15.97044,-15.44828 0.30345,0 -6.38671,6.95173 -14.86699,15.44828 -8.48029,8.49655 -15.66699,15.44827 -15.97044,15.44827 -0.30345,0 6.3867,-6.95172 14.86699,-15.44827 z m 46.34483,-34.2069 c 2.98885,-3.03448 5.68256,-5.51724 5.98601,-5.51724 0.30344,0 -1.89371,2.48276 -4.88256,5.51724 -2.98886,3.03448 -5.68256,5.51724 -5.98601,5.51724 -0.30345,0 1.8937,-2.48276 4.88256,-5.51724 z m 30.89655,-44.13793 c 5.43677,-5.46207 10.1333,-9.93103 10.43674,-9.93103 0.30345,0 -3.89653,4.46896 -9.33329,9.93103 -5.43677,5.46207 -10.1333,9.93103 -10.43675,9.93103 -0.30345,0 3.89653,-4.46896 9.3333,-9.93103 z m 38.06897,-25.93103 c 10,-10.0138 18.43009,-18.2069 18.73353,-18.2069 0.30345,0 -7.63009,8.1931 -17.63009,18.2069 -10,10.01379 -18.43009,18.20689 -18.73354,18.20689 -0.30344,0 7.6301,-8.1931 17.6301,-18.20689 z m 14.34482,-27.58621 c 9.39221,-9.4069 17.32502,-17.10345 17.62847,-17.10345 0.30345,0 -7.13281,7.69655 -16.52502,17.10345 -9.39221,9.4069 -17.32502,17.10345 -17.62847,17.10345 -0.30345,0 7.13281,-7.69655 16.52502,-17.10345 z m 44.68966,-32.55173 c 2.98885,-3.03448 5.68256,-5.51724 5.98601,-5.51724 0.30344,0 -1.89371,2.48276 -4.88256,5.51724 -2.98886,3.03449 -5.68256,5.51725 -5.98601,5.51725 -0.30345,0 1.8937,-2.48276 4.88256,-5.51725 z m 31.44827,-44.68965 c 5.13182,-5.15862 9.57886,-9.379311 9.88231,-9.379311 0.30345,0 -3.64704,4.220691 -8.77886,9.379311 -5.13182,5.15862 -9.57886,9.37931 -9.8823,9.37931 -0.30345,0 3.64704,-4.22069 8.77885,-9.37931 z m 28.72007,-16.563258 c 5.14189,-5.468413 9.57471,-9.794324 9.8507,-9.613137 0.276,0.181187 -3.93101,4.655344 -9.3489,9.942568 l -9.85071,9.613136 z m 8.19028,-13.674464 c -0.57655,-0.547989 -2.04138,-1.235216 -3.25517,-1.527172 -2.09338,-0.503522 -2.08614,-0.537412 0.14075,-0.65883 1.2912,-0.0704 2.9658,0.616826 3.72132,1.527171 1.49793,1.80489 1.07824,2.260486 -0.6069,0.658831 z"
         id="path316" />
      <path
         style="fill:#202f43;stroke-width:1.10345"
         d="m 82.809028,477.30212 c -3.249606,-3.91554 -19.358798,12.92514 232.268262,-242.8151 35.83044,-36.41613 85.65358,-87.06633 110.7181,-112.55598 25.06451,-25.48966 46.54845,-46.507088 47.74207,-46.7054 2.28525,-0.379679 5.35909,1.544001 5.35909,3.353847 0,0.587336 -4.5838,5.864467 -10.18621,11.726958 -11.8486,12.398625 -175.17705,178.801625 -228.69881,233.003905 -20.07577,20.33103 -62.73275,63.65517 -94.7933,96.27586 -32.06054,32.62069 -58.920552,59.31034 -59.688914,59.31034 -0.768363,0 -1.992492,-0.71749 -2.720288,-1.59443 z"
         id="path314" />
    </g>
  </g>
</svg>
